<?xml version="1.0" standalone="no"?>
<!DOCTYPE svg PUBLIC "-//W3C//DTD SVG 20010904//EN"
 "http://www.w3.org/TR/2001/REC-SVG-20010904/DTD/svg10.dtd">
<svg version="1.0" xmlns="http://www.w3.org/2000/svg"
 width="513.000000pt" height="284.000000pt" viewBox="0 0 513.000000 284.000000"
 preserveAspectRatio="xMidYMid meet">

<g transform="translate(0.000000,284.000000) scale(0.100000,-0.100000)"
fill="#000000" stroke="none">
<path fill="white" d="M0 2660 l0 -180 190 0 190 0 2 -512 3 -513 192 -3 193 -2 0 515 0
515 180 0 180 0 0 180 0 180 -565 0 -565 0 0 -180z"/>
<path fill="white" d="M1416 2808 c-22 -52 -237 -642 -367 -1003 -65 -181 -114 -334 -110
-338 5 -5 105 -9 222 -10 l214 -2 23 73 23 72 262 -2 261 -3 21 -70 21 -70 89
-3 c107 -4 327 7 343 17 13 8 -19 99 -321 921 l-163 445 -252 3 -253 2 -13
-32z m302 -485 c41 -113 90 -275 94 -311 l3 -27 -115 -3 c-63 -1 -125 0 -137
3 -20 5 -21 8 -11 42 41 158 117 383 128 383 3 0 20 -39 38 -87z"/>
<path fill="white" d="M2522 2148 l3 -693 463 -3 462 -2 0 185 0 185 -260 0 -260 0 0 510 0
510 -205 0 -205 0 2 -692z"/>
<path fill="white" d="M2995 1374 c-280 -59 -500 -229 -584 -454 -20 -54 -25 -89 -28 -205
-6 -168 9 -254 63 -365 46 -93 149 -198 281 -288 l91 -62 282 0 281 0 72 49
c84 56 175 149 236 239 l42 62 -63 29 c-35 16 -108 49 -162 75 l-99 46 -67
-69 c-51 -52 -80 -73 -124 -90 -157 -59 -341 14 -407 162 -21 45 -24 68 -24
162 0 105 2 114 33 177 57 117 151 172 292 173 73 0 92 -4 135 -27 48 -25 119
-92 142 -132 10 -18 18 -15 119 32 60 27 135 62 167 76 l58 25 -42 63 c-23 35
-58 82 -76 105 -74 91 -228 180 -358 208 -64 13 -212 18 -260 9z"/>
<path fill="white" d="M0 1180 l0 -180 190 0 190 0 0 -500 0 -500 195 0 195 0 0 500 0 500
180 0 180 0 0 180 0 180 -565 0 -565 0 0 -180z"/>
<path fill="white" d="M1250 680 l0 -680 510 0 510 0 0 170 0 170 -305 0 -305 0 0 80 0 80
305 0 305 0 0 180 0 180 -305 0 -305 0 0 70 0 70 305 0 305 0 0 180 0 180
-510 0 -510 0 0 -680z"/>
<path fill="white" d="M3820 680 l0 -680 205 0 205 0 0 260 0 260 250 0 250 0 0 -260 0
-260 200 0 200 0 0 680 0 680 -200 0 -200 0 0 -250 0 -250 -250 0 -250 0 0
250 0 250 -205 0 -205 0 0 -680z"/>
</g>
</svg>
